<?xml version="1.0" standalone="no"?><!DOCTYPE svg PUBLIC "-//W3C//DTD SVG 1.1//EN" "http://www.w3.org/Graphics/SVG/1.1/DTD/svg11.dtd"><svg t="1702714605028" class="icon" viewBox="0 0 1182 1024" version="1.1" xmlns="http://www.w3.org/2000/svg" p-id="10764" xmlns:xlink="http://www.w3.org/1999/xlink" width="230.859375" height="200"><path d="M834.872701 542.516556L591.493745 120.559235 103.98234 963.720383h974.269316z" fill="#FFF000" p-id="10765"></path><path d="M591.493745 0L1182.987491 1024H0L591.493745 0z m243.378956 542.516556L591.493745 120.559235 103.98234 963.720383h974.269316L834.872701 542.516556z" fill="#332C2B" p-id="10766"></path><path d="M614.852097 877.068433s5.274467-24.111847 35.414275-27.879323c0 0 3.767476-59.526122 51.237675-55.005151 0 0 16.576895 0 34.66078 8.288447 0 0 10.548933-4.520971 18.837381-15.069904l-40.688742-18.083885s-6.027962-2.260486-5.274467-8.288448l4.520972-16.576895L553.065489 670.610743l-4.520971 7.534952 30.893304 36.167771c13.562914 15.069904 11.302428 36.16777 11.302428 36.16777l-9.795438 114.531273c-2.260486 5.274467-6.027962 9.041943-9.795437 11.302428l43.702722 0.753496z m103.228845-143.917587l8.288447-12.809418s2.260486-3.013981 9.041943-1.506991l27.879323 12.809419s0-5.274467-1.506991-8.288448c0 0-14.316409-21.851361-9.795437-42.195732s34.66078-29.386313 50.484179-31.646799c0 0 14.316409-36.16777 33.15379-54.251656l162.754967 282.560707 35.414275 61.786608H147.685063l35.414275-61.786608H378.254599c-13.562914-12.809419-9.795438-33.907285-9.795438-33.907285l97.954378-212.485651c-7.534952-12.809419-25.618837-39.935247-34.66078-55.758646-8.288447-19.590876 7.534952-27.879323 7.534953-27.879323 33.907285-22.604857 81.377483-35.414275 81.377483-35.414275 70.075055-9.795438 94.186902 50.48418 94.186902 50.484179 3.013981 63.293598 36.16777 112.270787 36.167771 112.270787 6.781457 22.604857-2.260486 26.372333-2.260486 26.372333l69.32156 31.646799z m-313.45401 143.917587H542.516556c-8.288447-5.274467-9.795438-14.316409-9.795438-14.316409 3.013981-47.470199 5.274467-116.038263 5.274467-116.038264-11.302428-21.851361-45.209713-52.744665-45.209713-52.744665l-74.596027 165.768948c-4.520971 8.288447-9.041943 13.562914-13.562913 17.33039z m82.884473-281.807212s17.33039-30.139809 21.097867-39.181751c0 0-20.344371 4.520971-33.907285 16.576895l1.50699 4.520971c2.260486 5.274467 5.274467 14.316409 11.302428 18.083885z m99.461369 21.097867l-25.618837 42.195732L617.866078 685.680648s-6.781457-9.041943-12.055923-21.851362c-8.288447-18.083885-12.809419-37.674761-18.837381-47.470198z" fill="#332C2B" p-id="10767"></path><path d="M615.605592 477.715968m-48.223694 0a48.223694 48.223694 0 1 0 96.447388 0 48.223694 48.223694 0 1 0-96.447388 0Z" fill="#332C2B" p-id="10768"></path></svg>